<mxfile host="app.diagrams.net" modified="2022-03-10T07:33:31.319Z" agent="5.0 (Windows NT 10.0; Win64; x64) AppleWebKit/537.36 (KHTML, like Gecko) Chrome/97.0.4692.99 Safari/537.36" etag="kIfNqJg0wtN1BMU2hUm_" version="16.6.6" type="github">
  <diagram id="BDvVSngGOplgBvMkCZ0S" name="Page-1">
    <mxGraphModel dx="1422" dy="772" grid="1" gridSize="10" guides="1" tooltips="1" connect="1" arrows="1" fold="1" page="1" pageScale="1" pageWidth="827" pageHeight="1169" math="0" shadow="0">
      <root>
        <mxCell id="0" />
        <mxCell id="1" parent="0" />
        <mxCell id="b1F-uJUC9WspK6oYwCPj-3" value="consumer server" style="swimlane;fillColor=#F2FFD4;dashed=1;dashPattern=1 2;" parent="1" vertex="1">
          <mxGeometry x="200" y="45" width="480" height="735" as="geometry">
            <mxRectangle x="370" y="60" width="80" height="23" as="alternateBounds" />
          </mxGeometry>
        </mxCell>
        <mxCell id="ONsFw0UCnMqLuJ3qpuSr-8" value="" style="rounded=1;whiteSpace=wrap;html=1;fillColor=#F5FFFF;" parent="b1F-uJUC9WspK6oYwCPj-3" vertex="1">
          <mxGeometry x="70" y="120" width="340" height="590" as="geometry" />
        </mxCell>
        <mxCell id="b1F-uJUC9WspK6oYwCPj-13" value="监听订单消息" style="whiteSpace=wrap;html=1;align=center;fillColor=#99CCFF;" parent="b1F-uJUC9WspK6oYwCPj-3" vertex="1">
          <mxGeometry x="160" y="63.78" width="100" height="40" as="geometry" />
        </mxCell>
        <mxCell id="b1F-uJUC9WspK6oYwCPj-18" value="是否已推送" style="rhombus;whiteSpace=wrap;html=1;fillColor=#ffffc0;strokeColor=#000000;dashed=1;dashPattern=1 2;" parent="b1F-uJUC9WspK6oYwCPj-3" vertex="1">
          <mxGeometry x="170" y="138.78" width="80" height="40" as="geometry" />
        </mxCell>
        <mxCell id="b1F-uJUC9WspK6oYwCPj-20" value="否" style="edgeStyle=orthogonalEdgeStyle;html=1;align=left;verticalAlign=top;endArrow=open;endSize=8;strokeColor=#000000;rounded=0;entryX=0.5;entryY=0;entryDx=0;entryDy=0;" parent="b1F-uJUC9WspK6oYwCPj-3" source="b1F-uJUC9WspK6oYwCPj-18" target="b1F-uJUC9WspK6oYwCPj-38" edge="1">
          <mxGeometry x="-0.886" relative="1" as="geometry">
            <mxPoint x="210" y="223.78" as="targetPoint" />
            <Array as="points" />
            <mxPoint as="offset" />
          </mxGeometry>
        </mxCell>
        <mxCell id="b1F-uJUC9WspK6oYwCPj-28" value="" style="endArrow=classic;html=1;rounded=0;entryX=0.5;entryY=0;entryDx=0;entryDy=0;exitX=0.399;exitY=1.064;exitDx=0;exitDy=0;exitPerimeter=0;" parent="b1F-uJUC9WspK6oYwCPj-3" target="b1F-uJUC9WspK6oYwCPj-18" edge="1">
          <mxGeometry width="50" height="50" relative="1" as="geometry">
            <mxPoint x="209.89999999999998" y="103.78" as="sourcePoint" />
            <mxPoint x="180" y="91.22" as="targetPoint" />
          </mxGeometry>
        </mxCell>
        <mxCell id="ONsFw0UCnMqLuJ3qpuSr-2" value="" style="edgeStyle=orthogonalEdgeStyle;rounded=0;orthogonalLoop=1;jettySize=auto;html=1;" parent="b1F-uJUC9WspK6oYwCPj-3" source="b1F-uJUC9WspK6oYwCPj-38" target="b1F-uJUC9WspK6oYwCPj-46" edge="1">
          <mxGeometry relative="1" as="geometry" />
        </mxCell>
        <mxCell id="b1F-uJUC9WspK6oYwCPj-38" value="记录推送日志" style="whiteSpace=wrap;html=1;align=center;fillColor=#E1D5E7;" parent="b1F-uJUC9WspK6oYwCPj-3" vertex="1">
          <mxGeometry x="170" y="220.12" width="80" height="42.44" as="geometry" />
        </mxCell>
        <mxCell id="KlNrOT9Lmi1wFEdrxgjB-2" value="" style="edgeStyle=orthogonalEdgeStyle;rounded=0;orthogonalLoop=1;jettySize=auto;html=1;" parent="b1F-uJUC9WspK6oYwCPj-3" source="b1F-uJUC9WspK6oYwCPj-46" target="KlNrOT9Lmi1wFEdrxgjB-1" edge="1">
          <mxGeometry relative="1" as="geometry" />
        </mxCell>
        <mxCell id="b1F-uJUC9WspK6oYwCPj-46" value="商家号&lt;br&gt;路由" style="ellipse;shape=umlControl;whiteSpace=wrap;html=1;dashed=1;dashPattern=1 2;strokeColor=#000000;fillColor=#FFF2CC;gradientColor=none;" parent="b1F-uJUC9WspK6oYwCPj-3" vertex="1">
          <mxGeometry x="180" y="287.44" width="60" height="65" as="geometry" />
        </mxCell>
        <mxCell id="b1F-uJUC9WspK6oYwCPj-50" value="更新推送日志状态" style="whiteSpace=wrap;html=1;align=center;fillColor=#E1D5E7;" parent="b1F-uJUC9WspK6oYwCPj-3" vertex="1">
          <mxGeometry x="170" y="628.78" width="80" height="42.44" as="geometry" />
        </mxCell>
        <mxCell id="ONsFw0UCnMqLuJ3qpuSr-7" value="" style="edgeStyle=orthogonalEdgeStyle;rounded=0;orthogonalLoop=1;jettySize=auto;html=1;" parent="b1F-uJUC9WspK6oYwCPj-3" target="ONsFw0UCnMqLuJ3qpuSr-4" edge="1">
          <mxGeometry relative="1" as="geometry">
            <mxPoint x="210" y="528.78" as="sourcePoint" />
          </mxGeometry>
        </mxCell>
        <mxCell id="ONsFw0UCnMqLuJ3qpuSr-1" value="调用线下接口" style="whiteSpace=wrap;html=1;align=center;fillColor=#99CCFF;" parent="b1F-uJUC9WspK6oYwCPj-3" vertex="1">
          <mxGeometry x="170" y="500.11999999999995" width="80" height="35.12" as="geometry" />
        </mxCell>
        <mxCell id="ONsFw0UCnMqLuJ3qpuSr-4" value="是否成功" style="rhombus;whiteSpace=wrap;html=1;fillColor=#ffffc0;strokeColor=#000000;dashed=1;dashPattern=1 2;" parent="b1F-uJUC9WspK6oYwCPj-3" vertex="1">
          <mxGeometry x="170" y="563.28" width="80" height="40" as="geometry" />
        </mxCell>
        <mxCell id="ONsFw0UCnMqLuJ3qpuSr-5" value="否" style="edgeStyle=orthogonalEdgeStyle;html=1;align=left;verticalAlign=bottom;endArrow=open;endSize=8;strokeColor=#000000;rounded=0;exitX=1;exitY=0.5;exitDx=0;exitDy=0;" parent="b1F-uJUC9WspK6oYwCPj-3" source="ONsFw0UCnMqLuJ3qpuSr-4" edge="1">
          <mxGeometry x="-0.0644" y="-10" relative="1" as="geometry">
            <mxPoint x="250" y="519.74" as="targetPoint" />
            <Array as="points">
              <mxPoint x="290" y="583" />
              <mxPoint x="290" y="520" />
            </Array>
            <mxPoint as="offset" />
          </mxGeometry>
        </mxCell>
        <mxCell id="ONsFw0UCnMqLuJ3qpuSr-6" value="是" style="edgeStyle=orthogonalEdgeStyle;html=1;align=left;verticalAlign=top;endArrow=open;endSize=8;strokeColor=#000000;rounded=0;" parent="b1F-uJUC9WspK6oYwCPj-3" source="ONsFw0UCnMqLuJ3qpuSr-4" edge="1">
          <mxGeometry x="-0.886" relative="1" as="geometry">
            <mxPoint x="210" y="628.78" as="targetPoint" />
            <Array as="points" />
            <mxPoint as="offset" />
          </mxGeometry>
        </mxCell>
        <mxCell id="ONsFw0UCnMqLuJ3qpuSr-9" value="&lt;h3&gt;&lt;font style=&quot;font-size: 14px&quot;&gt;提交线程池处理&lt;/font&gt;&lt;/h3&gt;" style="text;html=1;strokeColor=none;fillColor=none;align=center;verticalAlign=middle;whiteSpace=wrap;rounded=0;" parent="b1F-uJUC9WspK6oYwCPj-3" vertex="1">
          <mxGeometry x="30" y="275" width="20" height="151" as="geometry" />
        </mxCell>
        <mxCell id="KlNrOT9Lmi1wFEdrxgjB-7" value="" style="edgeStyle=orthogonalEdgeStyle;rounded=0;orthogonalLoop=1;jettySize=auto;html=1;" parent="b1F-uJUC9WspK6oYwCPj-3" source="KlNrOT9Lmi1wFEdrxgjB-1" edge="1">
          <mxGeometry relative="1" as="geometry">
            <mxPoint x="210" y="438.78" as="targetPoint" />
          </mxGeometry>
        </mxCell>
        <mxCell id="KlNrOT9Lmi1wFEdrxgjB-1" value="组装参数，订单状态过滤" style="whiteSpace=wrap;html=1;align=center;fillColor=#99CCFF;" parent="b1F-uJUC9WspK6oYwCPj-3" vertex="1">
          <mxGeometry x="170" y="378.78" width="80" height="35.12" as="geometry" />
        </mxCell>
        <mxCell id="KlNrOT9Lmi1wFEdrxgjB-12" value="否" style="edgeStyle=orthogonalEdgeStyle;html=1;align=left;verticalAlign=bottom;endArrow=open;endSize=8;strokeColor=#000000;rounded=0;exitX=1;exitY=0.5;exitDx=0;exitDy=0;" parent="b1F-uJUC9WspK6oYwCPj-3" source="KlNrOT9Lmi1wFEdrxgjB-11" edge="1">
          <mxGeometry x="-0.08" y="10" relative="1" as="geometry">
            <mxPoint x="250" y="648.78" as="targetPoint" />
            <Array as="points">
              <mxPoint x="360" y="458" />
              <mxPoint x="360" y="649" />
            </Array>
            <mxPoint as="offset" />
          </mxGeometry>
        </mxCell>
        <mxCell id="KlNrOT9Lmi1wFEdrxgjB-13" value="是" style="edgeStyle=orthogonalEdgeStyle;html=1;align=left;verticalAlign=top;endArrow=open;endSize=8;strokeColor=#000000;rounded=0;entryX=0.5;entryY=0;entryDx=0;entryDy=0;labelBackgroundColor=#F5FFFF;" parent="b1F-uJUC9WspK6oYwCPj-3" edge="1">
          <mxGeometry x="-1" relative="1" as="geometry">
            <mxPoint x="210" y="500.12000000000006" as="targetPoint" />
            <Array as="points" />
            <mxPoint as="offset" />
            <mxPoint x="210" y="471.78" as="sourcePoint" />
          </mxGeometry>
        </mxCell>
        <mxCell id="KlNrOT9Lmi1wFEdrxgjB-11" value="是否满足&lt;br&gt;推送状态" style="rhombus;whiteSpace=wrap;html=1;fillColor=#ffffc0;strokeColor=#000000;dashed=1;dashPattern=1 2;" parent="b1F-uJUC9WspK6oYwCPj-3" vertex="1">
          <mxGeometry x="170" y="437.81999999999994" width="80" height="40" as="geometry" />
        </mxCell>
        <mxCell id="pwdq7ZrsbVOp6Q4Kp9Ys-18" value="log日志记录" style="whiteSpace=wrap;html=1;align=center;fillColor=#D5E8D4;" parent="b1F-uJUC9WspK6oYwCPj-3" vertex="1">
          <mxGeometry x="290" y="138.78" width="70" height="38.69" as="geometry" />
        </mxCell>
        <mxCell id="pwdq7ZrsbVOp6Q4Kp9Ys-21" value="是" style="edgeStyle=orthogonalEdgeStyle;html=1;align=left;verticalAlign=top;endArrow=open;endSize=8;strokeColor=#000000;rounded=0;entryX=0;entryY=0.5;entryDx=0;entryDy=0;exitX=1;exitY=0.5;exitDx=0;exitDy=0;" parent="b1F-uJUC9WspK6oYwCPj-3" source="b1F-uJUC9WspK6oYwCPj-18" target="pwdq7ZrsbVOp6Q4Kp9Ys-18" edge="1">
          <mxGeometry x="-0.5" relative="1" as="geometry">
            <mxPoint x="220" y="230.12000000000003" as="targetPoint" />
            <Array as="points" />
            <mxPoint as="offset" />
            <mxPoint x="220" y="188.78" as="sourcePoint" />
          </mxGeometry>
        </mxCell>
        <mxCell id="p9eaTv30AHialjieIy5y-1" value="订单推送流程" style="text;strokeColor=none;fillColor=none;html=1;fontSize=24;fontStyle=1;verticalAlign=middle;align=center;" vertex="1" parent="1">
          <mxGeometry x="364" y="800" width="100" height="40" as="geometry" />
        </mxCell>
      </root>
    </mxGraphModel>
  </diagram>
</mxfile>
